<svg version="1.1" viewBox="0.0 0.0 960.0 720.0" fill="none" stroke="none" stroke-linecap="square" stroke-miterlimit="10" xmlns:xlink="http://www.w3.org/1999/xlink" xmlns="http://www.w3.org/2000/svg"><clipPath id="p.0"><path d="m0 0l960.0 0l0 720.0l-960.0 0l0 -720.0z" clip-rule="nonzero"/></clipPath><g clip-path="url(#p.0)"><path fill="#000000" fill-opacity="0.0" d="m0 0l960.0 0l0 720.0l-960.0 0z" fill-rule="evenodd"/><path fill="#000000" fill-opacity="0.0" d="m242.16273 324.86877l0 0c0 -134.0443 113.50108 -242.70868 253.5118 -242.70868l0 0c67.235504 0 131.71725 25.571022 179.25992 71.08773c47.542725 45.516693 74.25189 107.25058 74.25189 171.62094l0 0c0 134.04428 -113.5011 242.70868 -253.51181 242.70868l0 0c-140.01071 0 -253.5118 -108.6644 -253.5118 -242.70868z" fill-rule="evenodd"/><path stroke="#9900ff" stroke-width="8.0" stroke-linejoin="round" stroke-linecap="butt" d="m242.16273 324.86877l0 0c0 -134.0443 113.50108 -242.70868 253.5118 -242.70868l0 0c67.235504 0 131.71725 25.571022 179.25992 71.08773c47.542725 45.516693 74.25189 107.25058 74.25189 171.62094l0 0c0 134.04428 -113.5011 242.70868 -253.51181 242.70868l0 0c-140.01071 0 -253.5118 -108.6644 -253.5118 -242.70868z" fill-rule="evenodd"/><path fill="#000000" fill-opacity="0.0" d="m266.48557 497.42505c39.63263 16.555359 161.04092 101.5155 237.79572 99.332214c76.75479 -2.1832275 185.61081 -93.69318 222.733 -112.43179" fill-rule="evenodd"/><path stroke="#9900ff" stroke-width="8.0" stroke-linejoin="round" stroke-linecap="butt" d="m266.48557 497.42505c39.63263 16.555359 161.04092 101.5155 237.79572 99.332214c76.75479 -2.1832275 185.61081 -93.69318 222.733 -112.43179" fill-rule="evenodd"/><path fill="#000000" fill-opacity="0.0" d="m223.78477 533.80536c46.79619 20.180603 190.149 123.744934 280.77716 121.08356c90.628174 -2.661316 219.15991 -114.20972 262.99188 -137.05164" fill-rule="evenodd"/><path stroke="#9900ff" stroke-width="8.0" stroke-linejoin="round" stroke-linecap="butt" d="m223.78477 533.80536c46.79619 20.180603 190.149 123.744934 280.77716 121.08356c90.628174 -2.661316 219.15991 -114.20972 262.99188 -137.05164" fill-rule="evenodd"/><path fill="#000000" fill-opacity="0.0" d="m271.3517 497.2966l-44.850403 36.22049" fill-rule="evenodd"/><path stroke="#9900ff" stroke-width="8.0" stroke-linejoin="round" stroke-linecap="butt" d="m271.3517 497.2966l-44.850403 36.22049" fill-rule="evenodd"/><path fill="#000000" fill-opacity="0.0" d="m723.7848 484.32547l43.77954 36.22049" fill-rule="evenodd"/><path stroke="#9900ff" stroke-width="8.0" stroke-linejoin="round" stroke-linecap="butt" d="m723.7848 484.32547l43.77954 36.22049" fill-rule="evenodd"/><path fill="#ffffff" d="m563.2441 239.4567l60.95746 -15.95723l13.089783 -74.310486l13.089844 74.310486l60.957397 15.95723l-60.957397 15.95723l-13.089844 74.31047l-13.089783 -74.31047z" fill-rule="evenodd"/><path stroke="#9900ff" stroke-width="8.0" stroke-linejoin="round" stroke-linecap="butt" d="m563.2441 239.4567l60.95746 -15.95723l13.089783 -74.310486l13.089844 74.310486l60.957397 15.95723l-60.957397 15.95723l-13.089844 74.31047l-13.089783 -74.31047z" fill-rule="evenodd"/><path fill="#ffffff" d="m388.1076 190.8084l47.61731 -9.4596405l10.22522 -44.05217l10.22522 44.05217l47.61731 9.4596405l-47.61731 9.4596405l-10.22522 44.05217l-10.22522 -44.05217z" fill-rule="evenodd"/><path stroke="#9900ff" stroke-width="8.0" stroke-linejoin="round" stroke-linecap="butt" d="m388.1076 190.8084l47.61731 -9.4596405l10.22522 -44.05217l10.22522 44.05217l47.61731 9.4596405l-47.61731 9.4596405l-10.22522 44.05217l-10.22522 -44.05217z" fill-rule="evenodd"/><path fill="#ffffff" d="m492.97375 405.4042l37.829407 -9.172913l8.123352 -42.716858l8.123352 42.716858l37.829407 9.172913l-37.829407 9.172882l-8.123352 42.71689l-8.123352 -42.71689z" fill-rule="evenodd"/><path stroke="#9900ff" stroke-width="8.0" stroke-linejoin="round" stroke-linecap="butt" d="m492.97375 405.4042l37.829407 -9.172913l8.123352 -42.716858l8.123352 42.716858l37.829407 9.172913l-37.829407 9.172882l-8.123352 42.71689l-8.123352 -42.71689z" fill-rule="evenodd"/><path fill="#000000" fill-opacity="0.0" d="m0 0l960.0 0l0 82.173225l-960.0 0z" fill-rule="evenodd"/><path fill="#ffffff" d="m130.26953 27.728123l0 15.671875l8.640625 0l0 -3.796875q0 -1.4375 0.546875 -2.046875q0.5625 -0.625 1.46875 -0.625q0.875 0 1.421875 0.625q0.5625 0.609375 0.5625 2.046875l0 7.796875l-18.96875 0q-1.4375 0 -2.0625 -0.546875q-0.609375 -0.5625 -0.609375 -1.46875q0 -0.875 0.609375 -1.421875q0.625 -0.5625 2.0625 -0.5625l2.328125 0l0 -15.671875l-2.328125 0q-1.4375 0 -2.0625 -0.546875q-0.609375 -0.5625 -0.609375 -1.46875q0 -0.890625 0.609375 -1.4375q0.625 -0.5625 2.0625 -0.5625l8.671875 0.015625q1.453125 0 2.0625 0.546875q0.625 0.546875 0.625 1.4375q0 0.90625 -0.625 1.46875q-0.609375 0.546875 -2.0625 0.546875l-2.34375 0zm35.722656 12.828125l-16.421875 0q0.625 1.5625 2.21875 2.53125q1.59375 0.953125 4.3125 0.953125q2.21875 0 5.90625 -0.953125q1.53125 -0.390625 2.109375 -0.390625q0.8125 0 1.359375 0.5625q0.546875 0.5625 0.546875 1.421875q0 0.78125 -0.59375 1.328125q-0.78125 0.71875 -3.8125 1.375q-3.015625 0.65625 -5.8125 0.65625q-4.8125 0 -7.6875 -2.703125q-2.875 -2.71875 -2.875 -6.6875q0 -4.21875 3.109375 -6.859375q3.109375 -2.65625 7.171875 -2.65625q2.453125 0 4.484375 0.859375q2.046875 0.859375 3.046875 1.859375q1.40625 1.4375 2.3125 3.578125q0.625 1.484375 0.625 3.4375l0 1.6875zm-4.421875 -4.0q-0.921875 -1.71875 -2.40625 -2.5625q-1.484375 -0.859375 -3.53125 -0.859375q-2.03125 0 -3.515625 0.859375q-1.484375 0.84375 -2.421875 2.5625l11.875 0zm17.394531 -2.890625l0 8.03125q0 1.28125 0.53125 1.703125q0.8125 0.640625 2.921875 0.640625q3.078125 0 5.671875 -1.3125q1.0 -0.5 1.5625 -0.5q0.78125 0 1.359375 0.59375q0.578125 0.578125 0.578125 1.40625q0 0.78125 -0.625 1.359375q-0.96875 0.90625 -3.796875 1.6875q-2.8125 0.765625 -4.75 0.765625q-3.71875 0 -5.59375 -1.609375q-1.859375 -1.609375 -1.859375 -3.953125l0 -8.8125l-1.453125 0q-1.4375 0 -2.0625 -0.546875q-0.609375 -0.5625 -0.609375 -1.46875q0 -0.875 0.609375 -1.421875q0.625 -0.5625 2.0625 -0.5625l1.453125 0l0 -3.609375q0 -1.453125 0.546875 -2.0625q0.5625 -0.625 1.46875 -0.625q0.875 0 1.421875 0.625q0.5625 0.609375 0.5625 2.0625l0 3.609375l7.40625 0q1.4375 0 2.046875 0.5625q0.625 0.546875 0.625 1.453125q0 0.875 -0.625 1.4375q-0.609375 0.546875 -2.046875 0.546875l-7.40625 0zm48.007812 0l0 8.03125q0 1.28125 0.53125 1.703125q0.8125 0.640625 2.921875 0.640625q3.078125 0 5.671875 -1.3125q1.0 -0.5 1.5625 -0.5q0.78125 0 1.359375 0.59375q0.578125 0.578125 0.578125 1.40625q0 0.78125 -0.625 1.359375q-0.96875 0.90625 -3.796875 1.6875q-2.8125 0.765625 -4.75 0.765625q-3.71875 0 -5.59375 -1.609375q-1.859375 -1.609375 -1.859375 -3.953125l0 -8.8125l-1.453125 0q-1.4375 0 -2.0625 -0.546875q-0.609375 -0.5625 -0.609375 -1.46875q0 -0.875 0.609375 -1.421875q0.625 -0.5625 2.0625 -0.5625l1.453125 0l0 -3.609375q0 -1.453125 0.546875 -2.0625q0.5625 -0.625 1.46875 -0.625q0.875 0 1.421875 0.625q0.5625 0.609375 0.5625 2.0625l0 3.609375l7.40625 0q1.4375 0 2.046875 0.5625q0.625 0.546875 0.625 1.453125q0 0.875 -0.625 1.4375q-0.609375 0.546875 -2.046875 0.546875l-7.40625 0zm20.863281 -11.59375l0 8.53125q1.25 -0.75 2.53125 -1.109375q1.28125 -0.359375 2.578125 -0.359375q2.078125 0 3.6875 0.703125q1.625 0.703125 2.6875 2.21875q1.078125 1.515625 1.078125 3.8125l0 7.53125q1.515625 0 1.984375 0.28125q0.9375 0.609375 0.9375 1.71875q0 0.890625 -0.609375 1.453125q-0.59375 0.546875 -2.046875 0.546875l-4.5625 0q-1.4375 0 -2.046875 -0.546875q-0.609375 -0.5625 -0.609375 -1.46875q0 -1.09375 0.9375 -1.703125q0.484375 -0.3125 1.984375 -0.28125l0 -7.25q0 -1.546875 -0.703125 -2.171875q-0.921875 -0.84375 -2.71875 -0.84375q-1.328125 0 -2.359375 0.53125q-1.015625 0.515625 -2.75 2.234375l0 7.5q1.546875 0 1.984375 0.28125q0.96875 0.609375 0.96875 1.71875q0 0.890625 -0.625 1.453125q-0.609375 0.546875 -2.0625 0.546875l-4.546875 0q-1.4375 0 -2.0625 -0.546875q-0.609375 -0.5625 -0.609375 -1.46875q0 -1.09375 0.953125 -1.703125q0.46875 -0.3125 2.0 -0.28125l0 -17.328125l-0.6875 0q-1.453125 0 -2.0625 -0.546875q-0.609375 -0.5625 -0.609375 -1.46875q0 -0.875 0.609375 -1.421875q0.609375 -0.5625 2.0625 -0.5625l4.6875 0zm38.17578 18.484375l-16.421875 0q0.625 1.5625 2.21875 2.53125q1.59375 0.953125 4.3125 0.953125q2.21875 0 5.90625 -0.953125q1.53125 -0.390625 2.109375 -0.390625q0.8125 0 1.359375 0.5625q0.546875 0.5625 0.546875 1.421875q0 0.78125 -0.59375 1.328125q-0.78125 0.71875 -3.8125 1.375q-3.015625 0.65625 -5.8125 0.65625q-4.8125 0 -7.6875 -2.703125q-2.875 -2.71875 -2.875 -6.6875q0 -4.21875 3.109375 -6.859375q3.109375 -2.65625 7.171875 -2.65625q2.453125 0 4.484375 0.859375q2.046875 0.859375 3.046875 1.859375q1.40625 1.4375 2.3125 3.578125q0.625 1.484375 0.625 3.4375l0 1.6875zm-4.421875 -4.0q-0.921875 -1.71875 -2.40625 -2.5625q-1.484375 -0.859375 -3.53125 -0.859375q-2.03125 0 -3.515625 0.859375q-1.484375 0.84375 -2.421875 2.5625l11.875 0zm48.632812 -6.171875q0.71875 -0.6875 1.484375 -0.6875q0.859375 0 1.40625 0.625q0.5625 0.609375 0.5625 2.03125l0 2.578125q0 1.453125 -0.5625 2.0625q-0.546875 0.59375 -1.453125 0.59375q-0.8125 0 -1.390625 -0.46875q-0.40625 -0.34375 -0.640625 -1.421875q-0.234375 -1.09375 -1.125 -1.625q-1.59375 -0.9375 -4.046875 -0.9375q-2.828125 0 -4.546875 1.671875q-1.703125 1.65625 -1.703125 4.1875q0 2.34375 1.640625 3.703125q1.640625 1.359375 5.453125 1.359375q2.5 0 4.078125 -0.5q0.9375 -0.3125 1.765625 -1.0625q0.84375 -0.765625 1.53125 -0.765625q0.828125 0 1.421875 0.609375q0.59375 0.609375 0.59375 1.421875q0 1.328125 -1.8125 2.53125q-2.703125 1.78125 -7.890625 1.78125q-4.671875 0 -7.265625 -1.9375q-3.515625 -2.609375 -3.515625 -7.109375q0 -4.28125 2.84375 -7.078125q2.859375 -2.8125 7.4375 -2.8125q1.671875 0 3.09375 0.3125q1.421875 0.3125 2.640625 0.9375zm16.925781 -0.71875l0 2.5q2.515625 -1.8125 3.96875 -2.421875q1.46875 -0.609375 2.734375 -0.609375q1.953125 0 3.78125 1.453125q1.25 0.96875 1.25 1.984375q0 0.859375 -0.59375 1.453125q-0.59375 0.59375 -1.4375 0.59375q-0.734375 0 -1.5625 -0.734375q-0.8125 -0.75 -1.453125 -0.75q-0.84375 0 -2.515625 1.0625q-1.671875 1.046875 -4.171875 3.15625l0 6.046875l5.703125 0q1.453125 0 2.0625 0.5625q0.609375 0.546875 0.609375 1.4375q0 0.890625 -0.609375 1.453125q-0.609375 0.546875 -2.0625 0.546875l-12.09375 0q-1.4375 0 -2.0625 -0.546875q-0.609375 -0.5625 -0.609375 -1.46875q0 -0.875 0.609375 -1.421875q0.625 -0.5625 2.0625 -0.5625l2.390625 0l0 -9.734375l-1.453125 0q-1.4375 0 -2.0625 -0.546875q-0.609375 -0.5625 -0.609375 -1.46875q0 -0.875 0.609375 -1.421875q0.625 -0.5625 2.0625 -0.5625l5.453125 0zm22.597656 17.59375l-6.9375 -13.59375q-0.96875 -0.109375 -1.484375 -0.65625q-0.5 -0.546875 -0.5 -1.328125q0 -0.90625 0.609375 -1.453125q0.625 -0.5625 2.0625 -0.5625l3.65625 0q1.4375 0 2.046875 0.5625q0.625 0.546875 0.625 1.453125q0 0.875 -0.625 1.4375q-0.609375 0.546875 -1.9375 0.546875l4.734375 9.203125l4.6875 -9.203125q-1.296875 0 -1.90625 -0.546875q-0.609375 -0.5625 -0.609375 -1.46875q0 -0.875 0.609375 -1.421875q0.609375 -0.5625 2.0625 -0.5625l3.765625 0q1.421875 0 2.03125 0.5625q0.625 0.546875 0.625 1.453125q0 0.796875 -0.53125 1.359375q-0.515625 0.546875 -1.5625 0.625l-9.171875 18.09375q1.5 0 1.96875 0.296875q0.9375 0.59375 0.9375 1.71875q0 0.875 -0.625 1.421875q-0.609375 0.5625 -2.046875 0.5625l-8.734375 0q-1.4375 0 -2.0625 -0.5625q-0.609375 -0.546875 -0.609375 -1.421875q0 -0.90625 0.609375 -1.46875q0.625 -0.546875 2.0625 -0.546875l3.984375 0l2.265625 -4.5zm30.566406 -12.90625q-0.96875 -0.609375 -2.046875 -0.90625q-1.078125 -0.3125 -2.25 -0.3125q-2.328125 0 -3.6875 0.765625q-0.609375 0.328125 -0.609375 0.71875q0 0.453125 0.828125 0.890625q0.625 0.3125 2.78125 0.59375q3.984375 0.546875 5.546875 1.09375q2.0625 0.734375 3.171875 2.15625q1.109375 1.421875 1.109375 3.0q0 2.15625 -1.890625 3.59375q-2.71875 2.09375 -7.046875 2.09375q-1.75 0 -3.21875 -0.296875q-1.46875 -0.296875 -2.703125 -0.890625q-0.296875 0.25 -0.625 0.390625q-0.328125 0.140625 -0.6875 0.140625q-0.9375 0 -1.5 -0.609375q-0.546875 -0.625 -0.546875 -2.078125l0 -1.34375q0 -1.4375 0.546875 -2.046875q0.5625 -0.625 1.46875 -0.625q0.71875 0 1.203125 0.40625q0.484375 0.390625 0.765625 1.375q0.921875 0.78125 2.203125 1.1875q1.296875 0.390625 2.96875 0.390625q2.75 0 4.28125 -0.859375q0.71875 -0.4375 0.71875 -0.90625q0 -0.78125 -1.03125 -1.28125q-1.03125 -0.515625 -4.28125 -0.859375q-4.828125 -0.515625 -6.4375 -1.953125q-1.625 -1.421875 -1.625 -3.515625q0 -2.15625 1.8125 -3.578125q2.46875 -1.953125 6.453125 -1.953125q1.375 0 2.65625 0.265625q1.28125 0.265625 2.453125 0.8125q0.375 -0.28125 0.6875 -0.40625q0.328125 -0.140625 0.609375 -0.140625q0.8125 0 1.359375 0.625q0.546875 0.609375 0.546875 2.046875l0 0.984375q0 1.296875 -0.3125 1.765625q-0.625 0.90625 -1.703125 0.90625q-0.71875 0 -1.265625 -0.453125q-0.546875 -0.453125 -0.703125 -1.1875zm18.691406 -0.6875l0 8.03125q0 1.28125 0.53125 1.703125q0.8125 0.640625 2.921875 0.640625q3.078125 0 5.671875 -1.3125q1.0 -0.5 1.5625 -0.5q0.78125 0 1.359375 0.59375q0.578125 0.578125 0.578125 1.40625q0 0.78125 -0.625 1.359375q-0.96875 0.90625 -3.796875 1.6875q-2.8125 0.765625 -4.75 0.765625q-3.71875 0 -5.59375 -1.609375q-1.859375 -1.609375 -1.859375 -3.953125l0 -8.8125l-1.453125 0q-1.4375 0 -2.0625 -0.546875q-0.609375 -0.5625 -0.609375 -1.46875q0 -0.875 0.609375 -1.421875q0.625 -0.5625 2.0625 -0.5625l1.453125 0l0 -3.609375q0 -1.453125 0.546875 -2.0625q0.5625 -0.625 1.46875 -0.625q0.875 0 1.421875 0.625q0.5625 0.609375 0.5625 2.0625l0 3.609375l7.40625 0q1.4375 0 2.046875 0.5625q0.625 0.546875 0.625 1.453125q0 0.875 -0.625 1.4375q-0.609375 0.546875 -2.046875 0.546875l-7.40625 0zm28.597656 13.734375l0 -0.9375q-1.5 0.796875 -3.328125 1.203125q-1.8125 0.40625 -3.296875 0.40625q-3.21875 0 -5.234375 -1.703125q-2.015625 -1.71875 -2.015625 -3.796875q0 -2.515625 2.5625 -4.671875q2.578125 -2.15625 7.109375 -2.15625q1.8125 0 4.203125 0.390625l0 -0.96875q0 -0.890625 -0.78125 -1.453125q-0.765625 -0.578125 -2.9375 -0.578125q-1.765625 0 -4.609375 0.703125q-1.046875 0.265625 -1.640625 0.265625q-0.796875 0 -1.359375 -0.578125q-0.546875 -0.578125 -0.546875 -1.484375q0 -0.5 0.1875 -0.875q0.203125 -0.375 0.546875 -0.59375q0.359375 -0.21875 1.46875 -0.53125q1.484375 -0.421875 3.03125 -0.65625q1.546875 -0.25 2.796875 -0.25q3.71875 0 5.78125 1.609375q2.0625 1.609375 2.0625 4.40625l0 8.25l0.6875 0q1.4375 0 2.046875 0.5625q0.625 0.546875 0.625 1.4375q0 0.890625 -0.625 1.453125q-0.609375 0.546875 -2.046875 0.546875l-4.6875 0zm0 -7.171875q-2.40625 -0.46875 -4.4375 -0.46875q-2.4375 0 -4.203125 1.1875q-1.09375 0.765625 -1.09375 1.546875q0 0.5625 0.53125 0.921875q0.984375 0.640625 2.671875 0.640625q1.453125 0 3.28125 -0.5625q1.828125 -0.5625 3.25 -1.546875l0 -1.71875zm22.394531 -18.15625l0 21.328125l4.8125 0q1.4375 0 2.046875 0.5625q0.625 0.546875 0.625 1.4375q0 0.890625 -0.625 1.453125q-0.609375 0.546875 -2.046875 0.546875l-13.609375 0q-1.453125 0 -2.078125 -0.546875q-0.609375 -0.5625 -0.609375 -1.46875q0 -0.875 0.609375 -1.421875q0.625 -0.5625 2.078125 -0.5625l4.796875 0l0 -17.328125l-3.21875 0q-1.421875 0 -2.046875 -0.546875q-0.625 -0.5625 -0.625 -1.46875q0 -0.875 0.609375 -1.421875q0.609375 -0.5625 2.0625 -0.5625l7.21875 0zm40.960938 0l0 8.984375q1.46875 -0.96875 2.984375 -1.4375q1.515625 -0.484375 3.046875 -0.484375q4.171875 0 7.0625 2.875q2.890625 2.875 2.890625 6.9375q0 3.875 -2.765625 6.484375q-2.75 2.609375 -7.265625 2.609375q-1.59375 0 -3.078125 -0.40625q-1.484375 -0.40625 -2.875 -1.21875l0 0.984375l-4.6875 0q-1.4375 0 -2.0625 -0.546875q-0.609375 -0.5625 -0.609375 -1.46875q0 -0.875 0.625 -1.421875q0.625 -0.5625 2.046875 -0.5625l0.6875 0l0 -17.328125l-0.6875 0q-1.4375 0 -2.0625 -0.546875q-0.609375 -0.5625 -0.609375 -1.46875q0 -0.875 0.609375 -1.421875q0.625 -0.5625 2.0625 -0.5625l4.6875 0zm11.96875 16.984375q0 -2.484375 -1.734375 -4.203125q-1.734375 -1.71875 -4.25 -1.71875q-2.5 0 -4.25 1.71875q-1.734375 1.71875 -1.734375 4.140625q0 2.21875 1.5625 3.640625q1.5625 1.40625 4.421875 1.40625q2.84375 0 4.40625 -1.40625q1.578125 -1.421875 1.578125 -3.578125zm20.691406 8.34375l0 -0.9375q-1.5 0.796875 -3.328125 1.203125q-1.8125 0.40625 -3.296875 0.40625q-3.21875 0 -5.234375 -1.703125q-2.015625 -1.71875 -2.015625 -3.796875q0 -2.515625 2.5625 -4.671875q2.578125 -2.15625 7.109375 -2.15625q1.8125 0 4.203125 0.390625l0 -0.96875q0 -0.890625 -0.78125 -1.453125q-0.765625 -0.578125 -2.9375 -0.578125q-1.765625 0 -4.609375 0.703125q-1.046875 0.265625 -1.640625 0.265625q-0.796875 0 -1.359375 -0.578125q-0.546875 -0.578125 -0.546875 -1.484375q0 -0.5 0.1875 -0.875q0.203125 -0.375 0.546875 -0.59375q0.359375 -0.21875 1.46875 -0.53125q1.484375 -0.421875 3.03125 -0.65625q1.546875 -0.25 2.796875 -0.25q3.71875 0 5.78125 1.609375q2.0625 1.609375 2.0625 4.40625l0 8.25l0.6875 0q1.4375 0 2.046875 0.5625q0.625 0.546875 0.625 1.4375q0 0.890625 -0.625 1.453125q-0.609375 0.546875 -2.046875 0.546875l-4.6875 0zm0 -7.171875q-2.40625 -0.46875 -4.4375 -0.46875q-2.4375 0 -4.203125 1.1875q-1.09375 0.765625 -1.09375 1.546875q0 0.5625 0.53125 0.921875q0.984375 0.640625 2.671875 0.640625q1.453125 0 3.28125 -0.5625q1.828125 -0.5625 3.25 -1.546875l0 -1.71875zm22.394531 -18.15625l0 21.328125l4.8125 0q1.4375 0 2.046875 0.5625q0.625 0.546875 0.625 1.4375q0 0.890625 -0.625 1.453125q-0.609375 0.546875 -2.046875 0.546875l-13.609375 0q-1.453125 0 -2.078125 -0.546875q-0.609375 -0.5625 -0.609375 -1.46875q0 -0.875 0.609375 -1.421875q0.625 -0.5625 2.078125 -0.5625l4.796875 0l0 -17.328125l-3.21875 0q-1.421875 0 -2.046875 -0.546875q-0.625 -0.5625 -0.625 -1.46875q0 -0.875 0.609375 -1.421875q0.609375 -0.5625 2.0625 -0.5625l7.21875 0zm24.003906 0l0 21.328125l4.8125 0q1.4375 0 2.046875 0.5625q0.625 0.546875 0.625 1.4375q0 0.890625 -0.625 1.453125q-0.609375 0.546875 -2.046875 0.546875l-13.609375 0q-1.453125 0 -2.078125 -0.546875q-0.609375 -0.5625 -0.609375 -1.46875q0 -0.875 0.609375 -1.421875q0.625 -0.5625 2.078125 -0.5625l4.796875 0l0 -17.328125l-3.21875 0q-1.421875 0 -2.046875 -0.546875q-0.625 -0.5625 -0.625 -1.46875q0 -0.875 0.609375 -1.421875q0.609375 -0.5625 2.0625 -0.5625l7.21875 0zm55.195312 0l0 21.328125l0.6875 0q1.421875 0 2.046875 0.5625q0.625 0.546875 0.625 1.4375q0 0.890625 -0.609375 1.453125q-0.609375 0.546875 -2.0625 0.546875l-4.6875 0l0 -0.984375q-1.359375 0.8125 -2.859375 1.21875q-1.5 0.40625 -3.09375 0.40625q-4.515625 0 -7.265625 -2.609375q-2.75 -2.609375 -2.75 -6.484375q0 -4.0625 2.890625 -6.9375q2.890625 -2.875 7.046875 -2.875q1.5625 0 3.0625 0.484375q1.5 0.46875 2.96875 1.4375l0 -4.984375l-0.6875 0q-1.4375 0 -2.0625 -0.546875q-0.609375 -0.5625 -0.609375 -1.453125q0 -0.890625 0.609375 -1.4375q0.625 -0.5625 2.0625 -0.5625l4.6875 0zm-4.0 16.984375q0 -2.484375 -1.734375 -4.203125q-1.734375 -1.71875 -4.265625 -1.71875q-2.5 0 -4.234375 1.71875q-1.734375 1.71875 -1.734375 4.140625q0 2.21875 1.5625 3.640625q1.5625 1.40625 4.40625 1.40625q2.84375 0 4.421875 -1.40625q1.578125 -1.421875 1.578125 -3.578125zm28.863281 1.5l-16.421875 0q0.625 1.5625 2.21875 2.53125q1.59375 0.953125 4.3125 0.953125q2.21875 0 5.90625 -0.953125q1.53125 -0.390625 2.109375 -0.390625q0.8125 0 1.359375 0.5625q0.546875 0.5625 0.546875 1.421875q0 0.78125 -0.59375 1.328125q-0.78125 0.71875 -3.8125 1.375q-3.015625 0.65625 -5.8125 0.65625q-4.8125 0 -7.6875 -2.703125q-2.875 -2.71875 -2.875 -6.6875q0 -4.21875 3.109375 -6.859375q3.109375 -2.65625 7.171875 -2.65625q2.453125 0 4.484375 0.859375q2.046875 0.859375 3.046875 1.859375q1.40625 1.4375 2.3125 3.578125q0.625 1.484375 0.625 3.4375l0 1.6875zm-4.421875 -4.0q-0.921875 -1.71875 -2.40625 -2.5625q-1.484375 -0.859375 -3.53125 -0.859375q-2.03125 0 -3.515625 0.859375q-1.484375 0.84375 -2.421875 2.5625l11.875 0zm24.628906 -6.171875q0.71875 -0.6875 1.484375 -0.6875q0.859375 0 1.40625 0.625q0.5625 0.609375 0.5625 2.03125l0 2.578125q0 1.453125 -0.5625 2.0625q-0.546875 0.59375 -1.453125 0.59375q-0.8125 0 -1.390625 -0.46875q-0.40625 -0.34375 -0.640625 -1.421875q-0.234375 -1.09375 -1.125 -1.625q-1.59375 -0.9375 -4.046875 -0.9375q-2.828125 0 -4.546875 1.671875q-1.703125 1.65625 -1.703125 4.1875q0 2.34375 1.640625 3.703125q1.640625 1.359375 5.453125 1.359375q2.5 0 4.078125 -0.5q0.9375 -0.3125 1.765625 -1.0625q0.84375 -0.765625 1.53125 -0.765625q0.828125 0 1.421875 0.609375q0.59375 0.609375 0.59375 1.421875q0 1.328125 -1.8125 2.53125q-2.703125 1.78125 -7.890625 1.78125q-4.671875 0 -7.265625 -1.9375q-3.515625 -2.609375 -3.515625 -7.109375q0 -4.28125 2.84375 -7.078125q2.859375 -2.8125 7.4375 -2.8125q1.671875 0 3.09375 0.3125q1.421875 0.3125 2.640625 0.9375zm19.191406 -8.3125l0 4.234375l-4.765625 0l0 -4.234375l4.765625 0zm0.546875 7.59375l0 13.734375l4.8125 0q1.4375 0 2.046875 0.5625q0.625 0.546875 0.625 1.4375q0 0.890625 -0.625 1.453125q-0.609375 0.546875 -2.046875 0.546875l-13.625 0q-1.4375 0 -2.0625 -0.546875q-0.609375 -0.5625 -0.609375 -1.46875q0 -0.875 0.609375 -1.421875q0.625 -0.5625 2.0625 -0.5625l4.8125 0l0 -9.734375l-3.21875 0q-1.4375 0 -2.0625 -0.546875q-0.625 -0.5625 -0.625 -1.46875q0 -0.875 0.609375 -1.421875q0.625 -0.5625 2.078125 -0.5625l7.21875 0zm31.207031 -7.59375l0 21.328125l0.6875 0q1.421875 0 2.046875 0.5625q0.625 0.546875 0.625 1.4375q0 0.890625 -0.609375 1.453125q-0.609375 0.546875 -2.0625 0.546875l-4.6875 0l0 -0.984375q-1.359375 0.8125 -2.859375 1.21875q-1.5 0.40625 -3.09375 0.40625q-4.515625 0 -7.265625 -2.609375q-2.75 -2.609375 -2.75 -6.484375q0 -4.0625 2.890625 -6.9375q2.890625 -2.875 7.046875 -2.875q1.5625 0 3.0625 0.484375q1.5 0.46875 2.96875 1.4375l0 -4.984375l-0.6875 0q-1.4375 0 -2.0625 -0.546875q-0.609375 -0.5625 -0.609375 -1.453125q0 -0.890625 0.609375 -1.4375q0.625 -0.5625 2.0625 -0.5625l4.6875 0zm-4.0 16.984375q0 -2.484375 -1.734375 -4.203125q-1.734375 -1.71875 -4.265625 -1.71875q-2.5 0 -4.234375 1.71875q-1.734375 1.71875 -1.734375 4.140625q0 2.21875 1.5625 3.640625q1.5625 1.40625 4.40625 1.40625q2.84375 0 4.421875 -1.40625q1.578125 -1.421875 1.578125 -3.578125zm28.863281 1.5l-16.421875 0q0.625 1.5625 2.21875 2.53125q1.59375 0.953125 4.3125 0.953125q2.21875 0 5.90625 -0.953125q1.53125 -0.390625 2.109375 -0.390625q0.8125 0 1.359375 0.5625q0.546875 0.5625 0.546875 1.421875q0 0.78125 -0.59375 1.328125q-0.78125 0.71875 -3.8125 1.375q-3.015625 0.65625 -5.8125 0.65625q-4.8125 0 -7.6875 -2.703125q-2.875 -2.71875 -2.875 -6.6875q0 -4.21875 3.109375 -6.859375q3.109375 -2.65625 7.171875 -2.65625q2.453125 0 4.484375 0.859375q2.046875 0.859375 3.046875 1.859375q1.40625 1.4375 2.3125 3.578125q0.625 1.484375 0.625 3.4375l0 1.6875zm-4.421875 -4.0q-0.921875 -1.71875 -2.40625 -2.5625q-1.484375 -0.859375 -3.53125 -0.859375q-2.03125 0 -3.515625 0.859375q-1.484375 0.84375 -2.421875 2.5625l11.875 0zm21.441406 8.828125q0 1.140625 -0.8125 1.90625q-0.796875 0.75 -2.203125 0.75q-1.40625 0 -2.203125 -0.75q-0.796875 -0.765625 -0.796875 -1.90625q0 -1.125 0.796875 -1.890625q0.796875 -0.765625 2.203125 -0.765625q1.40625 0 2.203125 0.765625q0.8125 0.765625 0.8125 1.890625zm24.003906 0q0 1.140625 -0.8125 1.90625q-0.796875 0.75 -2.203125 0.75q-1.40625 0 -2.203125 -0.75q-0.796875 -0.765625 -0.796875 -1.90625q0 -1.125 0.796875 -1.890625q0.796875 -0.765625 2.203125 -0.765625q1.40625 0 2.203125 0.765625q0.8125 0.765625 0.8125 1.890625zm24.003906 0q0 1.140625 -0.8125 1.90625q-0.796875 0.75 -2.203125 0.75q-1.40625 0 -2.203125 -0.75q-0.796875 -0.765625 -0.796875 -1.90625q0 -1.125 0.796875 -1.890625q0.796875 -0.765625 2.203125 -0.765625q1.40625 0 2.203125 0.765625q0.8125 0.765625 0.8125 1.890625z" fill-rule="nonzero"/></g></svg>