<svg version="1.1" viewBox="0.0 0.0 960.0 720.0" fill="none" stroke="none" stroke-linecap="square" stroke-miterlimit="10" xmlns:xlink="http://www.w3.org/1999/xlink" xmlns="http://www.w3.org/2000/svg"><clipPath id="p.0"><path d="m0 0l960.0 0l0 720.0l-960.0 0l0 -720.0z" clip-rule="nonzero"/></clipPath><g clip-path="url(#p.0)"><path fill="#000000" fill-opacity="0.0" d="m0 0l960.0 0l0 720.0l-960.0 0z" fill-rule="evenodd"/><path fill="#000000" fill-opacity="0.0" d="m242.16273 324.86877l0 0c0 -134.0443 113.50108 -242.70868 253.5118 -242.70868l0 0c67.235504 0 131.71725 25.571022 179.25992 71.08773c47.542725 45.516693 74.25189 107.25058 74.25189 171.62094l0 0c0 134.04428 -113.5011 242.70868 -253.51181 242.70868l0 0c-140.01071 0 -253.5118 -108.6644 -253.5118 -242.70868z" fill-rule="evenodd"/><path stroke="#000000" stroke-width="8.0" stroke-linejoin="round" stroke-linecap="butt" d="m242.16273 324.86877l0 0c0 -134.0443 113.50108 -242.70868 253.5118 -242.70868l0 0c67.235504 0 131.71725 25.571022 179.25992 71.08773c47.542725 45.516693 74.25189 107.25058 74.25189 171.62094l0 0c0 134.04428 -113.5011 242.70868 -253.51181 242.70868l0 0c-140.01071 0 -253.5118 -108.6644 -253.5118 -242.70868z" fill-rule="evenodd"/><path fill="#000000" fill-opacity="0.0" d="m266.48557 497.42505c39.63263 16.555359 161.04092 101.5155 237.79572 99.332214c76.75479 -2.1832275 185.61081 -93.69318 222.733 -112.43179" fill-rule="evenodd"/><path stroke="#000000" stroke-width="8.0" stroke-linejoin="round" stroke-linecap="butt" d="m266.48557 497.42505c39.63263 16.555359 161.04092 101.5155 237.79572 99.332214c76.75479 -2.1832275 185.61081 -93.69318 222.733 -112.43179" fill-rule="evenodd"/><path fill="#000000" fill-opacity="0.0" d="m223.78477 533.80536c46.79619 20.180603 190.149 123.744934 280.77716 121.08356c90.628174 -2.661316 219.15991 -114.20972 262.99188 -137.05164" fill-rule="evenodd"/><path stroke="#000000" stroke-width="8.0" stroke-linejoin="round" stroke-linecap="butt" d="m223.78477 533.80536c46.79619 20.180603 190.149 123.744934 280.77716 121.08356c90.628174 -2.661316 219.15991 -114.20972 262.99188 -137.05164" fill-rule="evenodd"/><path fill="#000000" fill-opacity="0.0" d="m271.3517 497.2966l-44.850403 36.22049" fill-rule="evenodd"/><path stroke="#000000" stroke-width="8.0" stroke-linejoin="round" stroke-linecap="butt" d="m271.3517 497.2966l-44.850403 36.22049" fill-rule="evenodd"/><path fill="#000000" fill-opacity="0.0" d="m723.7848 484.32547l43.77954 36.22049" fill-rule="evenodd"/><path stroke="#000000" stroke-width="8.0" stroke-linejoin="round" stroke-linecap="butt" d="m723.7848 484.32547l43.77954 36.22049" fill-rule="evenodd"/><path fill="#000000" fill-opacity="0.0" d="m563.2441 239.4567l60.95746 -15.95723l13.089783 -74.310486l13.089844 74.310486l60.957397 15.95723l-60.957397 15.95723l-13.089844 74.31047l-13.089783 -74.31047z" fill-rule="evenodd"/><path stroke="#000000" stroke-width="8.0" stroke-linejoin="round" stroke-linecap="butt" d="m563.2441 239.4567l60.95746 -15.95723l13.089783 -74.310486l13.089844 74.310486l60.957397 15.95723l-60.957397 15.95723l-13.089844 74.31047l-13.089783 -74.31047z" fill-rule="evenodd"/><path fill="#000000" fill-opacity="0.0" d="m388.1076 190.8084l47.61731 -9.4596405l10.22522 -44.05217l10.22522 44.05217l47.61731 9.4596405l-47.61731 9.4596405l-10.22522 44.05217l-10.22522 -44.05217z" fill-rule="evenodd"/><path stroke="#000000" stroke-width="8.0" stroke-linejoin="round" stroke-linecap="butt" d="m388.1076 190.8084l47.61731 -9.4596405l10.22522 -44.05217l10.22522 44.05217l47.61731 9.4596405l-47.61731 9.4596405l-10.22522 44.05217l-10.22522 -44.05217z" fill-rule="evenodd"/><path fill="#000000" fill-opacity="0.0" d="m492.97375 405.4042l37.829407 -9.172913l8.123352 -42.716858l8.123352 42.716858l37.829407 9.172913l-37.829407 9.172882l-8.123352 42.71689l-8.123352 -42.71689z" fill-rule="evenodd"/><path stroke="#000000" stroke-width="8.0" stroke-linejoin="round" stroke-linecap="butt" d="m492.97375 405.4042l37.829407 -9.172913l8.123352 -42.716858l8.123352 42.716858l37.829407 9.172913l-37.829407 9.172882l-8.123352 42.71689l-8.123352 -42.71689z" fill-rule="evenodd"/></g></svg>